<?xml version="1.0" encoding="UTF-8"?>
<svg id="svg2" xmlns="http://www.w3.org/2000/svg" version="1.1" xmlns:cc="http://creativecommons.org/ns#" xmlns:dc="http://purl.org/dc/elements/1.1/" xmlns:rdf="http://www.w3.org/1999/02/22-rdf-syntax-ns#" viewBox="0 0 320 320">
  <!-- Generator: Adobe Illustrator 29.1.0, SVG Export Plug-In . SVG Version: 2.1.0 Build 142)  -->
  <defs>
    <style>
      .st0 {
        fill: #fff;
      }
    </style>
  </defs>
  <path class="st0" d="M164.2,285c1.8,2,16.5-12.9,17.2-16.4,1-5.4-.4-13,0-18.9,2.8-37.4-1.2-75.2.6-111.9s30.9-34.3,39-48.6c-21.9-17.8-10.3-52.8,18.2-52.8,34,0,42.8,47.6,7.5,59.4-9.9,3.3-6.4-1.7-14.3,6.4-11.4,11.7-22.8,23.3-33.7,35.4v116.5l14.6-12.1,1.3-38.4,19.6-23.6c-15.5-20.2-4.8-48.7,22.4-46.8s33.1,43,5.2,52c-4.3,1.4-10,1-13,2.5s-17.5,18.7-18.1,19.9c-5.2,11.5,4.8,32.4-5.3,44.7s-40.6,34.4-56.8,50.2c-4.9,6.2-.6,23-16.1,16-3.3-1.5-3.6-8.2-3.9-11.7-2.3-30.6,2.4-64.4.1-95-.2-2.9-.2-7.9-3.1-9.4-7.1-3.7-29.8-6-41.1-10.3C48.9,170.5,30.6,116.2,43.5,60.7c48.5,5,88.3,28.7,107.2,74.7,3.1,7.6,13.5,40.4,13.5,46.9v102.7ZM254.1,66c0-8-6.5-14.5-14.5-14.5s-14.5,6.5-14.5,14.5,6.5,14.5,14.5,14.5,14.5-6.5,14.5-14.5ZM143.5,181.4c2.8-3-26.6-35.8-30.2-39.7-10.5-11.4-22.9-24.1-35.4-32.8-3.8,4.5,42.1,54,48.3,59.6l17.3,12.9ZM264.9,159.8c0-6.1-4.9-11-11-11s-11,4.9-11,11,4.9,11,11,11,11-4.9,11-11Z"/>
  <path class="st0" d="M164.2,143.5l-14.9-35.7-.6-47.8c-26-6-33.1-42.4-8.8-55.5,38.7-20.9,64.9,37.5,24.2,55.3v83.7ZM169,30.2c0-7.6-6.2-13.8-13.8-13.8s-13.8,6.2-13.8,13.8,6.2,13.8,13.8,13.8,13.8-6.2,13.8-13.8Z"/>
  <path class="st0" d="M122.2,249.4c16.3,16.9,9.5,24.9,12.8,43.3,1.4,7.8,9.6,11.5.9,21.8s-29.3-.2-23.2-14.6,6.8-5.8,6.9-15.7c.2-14.1-7.4-26-20-32-27.6,35.2-60.5-24.9-23.8-32.4,19.4-3.9,19.1,6.3,28.2,15.9,4.3,4.6,13.6,8.8,18.2,13.7ZM86.8,240.6c0-3.3-2.7-6-6-6s-6,2.7-6,6,2.7,6,6,6,6-2.7,6-6Z"/>
</svg>
