<?xml version="1.0" encoding="UTF-8"?>
<svg id="svg2" xmlns="http://www.w3.org/2000/svg" version="1.1" xmlns:cc="http://creativecommons.org/ns#" xmlns:dc="http://purl.org/dc/elements/1.1/" xmlns:rdf="http://www.w3.org/1999/02/22-rdf-syntax-ns#" viewBox="0 0 1543.4 320">
  <!-- Generator: Adobe Illustrator 29.1.0, SVG Export Plug-In . SVG Version: 2.1.0 Build 142)  -->
  <defs>
    <style>
      .st0 {
        fill: #fff;
      }
    </style>
  </defs>
  <g>
    <path class="st0" d="M374.2,258c-20.9,0-37.2-6.1-48.7-18.3-11.5-12.2-17.3-29.4-17.3-51.6v-119.9h26.4v120.8c0,13.7,3.4,24.3,10.3,31.8,6.9,7.5,16.6,11.2,29.2,11.2s22.5-3.7,29.4-11.2c6.9-7.5,10.4-18.1,10.4-31.8v-120.8h26.4v119.9c0,22.2-5.8,39.4-17.3,51.6-11.5,12.2-27.8,18.3-48.8,18.3Z"/>
    <path class="st0" d="M561.5,192.2l55.2-124.1h24.7v187.9h-25.7V115.4l1.3,8.3-46.3,106.3h-18.3l-46.3-103.8,1.3-10.9v140.7h-25.7V68.2h24.7l55.2,124.1Z"/>
    <path class="st0" d="M687.9,256.1V68.2h26.4v187.9h-26.4ZM701.5,183.2v-25.1h60.1c8.6,0,15.5-3,20.7-8.9,5.2-5.9,7.8-13.7,7.8-23.4s-2.6-17.7-7.8-23.6c-5.2-5.9-12.1-8.9-20.7-8.9h-60.1v-25.1h59.2c11.4,0,21.3,2.4,29.7,7.2,8.4,4.8,15,11.5,19.7,20.1,4.7,8.6,7,18.7,7,30.4s-2.3,21.6-7,30.2c-4.7,8.6-11.3,15.3-19.7,20-8.4,4.7-18.3,7.1-29.7,7.1h-59.2Z"/>
    <path class="st0" d="M906.6,258c-9.1,0-17.7-.9-25.8-2.6-8.1-1.7-15.6-4.3-22.6-7.8-7-3.4-13.6-7.8-19.7-12.9l16.4-20.2c7.2,6.2,15,10.9,23.6,14,8.6,3.1,18,4.7,28,4.7s24.2-2.5,31.7-7.6c7.5-5.1,11.2-12.2,11.2-21.3h0c0-7.3-1.9-12.7-5.7-16.5-3.8-3.8-8.8-6.6-14.9-8.5-6.2-1.9-12.9-3.4-20.2-4.6-7.1-1.2-14.2-2.6-21.4-4.3-7.2-1.6-13.8-4.2-19.8-7.7-6-3.5-10.9-8.5-14.5-15.1-3.7-6.5-5.5-15.3-5.5-26.2h0c0-17.6,5.8-31.2,17.4-40.8,11.6-9.6,28-14.4,49.2-14.4s19.9,1.6,29.6,4.8,19,8.2,28.2,14.8l-15,20.9c-7.2-5.3-14.3-9.3-21.4-11.9s-14.2-3.9-21.4-3.9c-12.8,0-22.8,2.6-29.9,7.7-7.1,5.1-10.7,12.4-10.7,21.8h0c0,7.2,2.1,12.6,6.2,16.3,4.1,3.7,9.5,6.4,16.2,8.2,6.7,1.8,13.8,3.4,21.5,5,6.9,1.4,13.8,3,20.7,5,6.9,1.9,13.2,4.7,18.8,8.4,5.6,3.7,10.2,8.7,13.6,15.1,3.4,6.4,5.1,14.7,5.1,24.9v.3c0,17.3-6,30.7-18.1,40.2-12.1,9.5-29,14.2-50.9,14.2Z"/>
    <path class="st0" d="M1010.5,256.1V121.9h26.4v134.1h-26.4ZM1090.6,256.1v-81.3c0-9.5-2.3-16.8-7-22-4.7-5.2-11.2-7.8-19.8-7.8s-15.3,2.3-20,6.8c-4.7,4.6-7,11-7,19.3l-2.7-25.8c4.1-8.1,9.5-14.3,16.2-18.7,6.7-4.4,14.1-6.6,22.2-6.6,14.1,0,25.1,4.8,32.8,14.3,7.8,9.5,11.6,23,11.6,40.4v81.4h-26.4ZM1170.7,256.1v-81.3c0-9.5-2.4-16.8-7.3-22s-11.8-7.8-20.7-7.8-14.5,2.5-19,7.5c-4.5,5-6.7,12.1-6.7,21.2l-5.3-25.8c4.3-9,9.9-15.8,16.8-20.7,6.9-4.8,14.5-7.2,22.9-7.2,14.6,0,25.8,4.8,33.8,14.3,8,9.5,12,23,12,40.4v81.4h-26.4Z"/>
    <path class="st0" d="M1280,258c-16.5,0-28.8-3.4-37-10.2-8.2-6.8-12.3-17.2-12.3-31.3s3.8-23.3,11.3-29.9c7.5-6.6,18.8-9.9,33.9-9.9h38.1l1.8,21.2h-39.8c-6.8,0-11.9,1.5-15.4,4.6-3.4,3.1-5.2,7.7-5.2,14s2.3,11.8,6.8,15.1c4.6,3.3,11.4,4.9,20.5,4.9s17.5-1.1,22.5-3.2c5-2.2,7.5-5.5,7.5-10.1l2.7,18.9c-2.3,3.6-5.2,6.6-8.7,8.9-3.4,2.3-7.4,4.1-11.8,5.2-4.4,1.2-9.5,1.7-15.1,1.7ZM1312.8,256.1v-85c0-8.8-2.3-15.6-7-20.5-4.7-4.9-11.4-7.3-20-7.3s-10.4.8-15.6,2.4c-5.1,1.6-9.7,3.9-13.8,6.9l-19.3-13.2c5.1-6.1,11.8-10.9,20.1-14.3,8.3-3.4,17.6-5.1,27.7-5.1,16.8,0,29.8,4.4,39,13.1,9.2,8.7,13.8,21,13.8,36.8v86.2h-25.1Z"/>
    <path class="st0" d="M1378,256.1V121.9h26.4v134.1h-26.4ZM1451.7,153.7c-2.3-2.8-5.3-5-8.8-6.5-3.5-1.5-7.6-2.2-12.3-2.2-8.4,0-14.8,2.3-19.4,6.9s-6.9,11-6.9,19.2l-2.7-25.8c4-7.9,9.4-14.1,16-18.6,6.6-4.5,13.8-6.7,21.8-6.7s11.7.9,16.6,2.6c5,1.8,9.3,4.4,13,7.8l-17.2,23.3Z"/>
    <path class="st0" d="M1480.6,145.7v-23.8h60.5v23.8h-60.5ZM1525.8,256.7c-11,0-19-3.1-24-9.2-5-6.1-7.4-14.9-7.4-26.4V82.9h26.4v138.5c0,3.2.6,5.7,1.9,7.5,1.3,1.8,3.2,2.7,5.7,2.7h12.7v25.1h-15.2Z"/>
  </g>
  <text/>
  <g>
    <path class="st0" d="M156.2,285c1.8,2,16.5-12.9,17.2-16.4,1-5.4-.4-13,0-18.9,2.8-37.4-1.2-75.2.6-111.9.8-16.1,30.9-34.3,39-48.6-21.9-17.8-10.3-52.8,18.2-52.8,34,0,42.8,47.6,7.5,59.4-9.9,3.3-6.4-1.7-14.3,6.4-11.4,11.7-22.8,23.3-33.7,35.4v116.5l14.6-12.1,1.3-38.4,19.6-23.6c-15.5-20.2-4.8-48.7,22.4-46.8,28.2,2,33.1,43,5.2,52-4.3,1.4-10,1-13,2.5s-17.5,18.7-18.1,19.9c-5.2,11.5,4.8,32.4-5.3,44.7s-40.6,34.4-56.8,50.2c-4.9,6.2-.6,23-16.1,16-3.3-1.5-3.6-8.2-3.9-11.7-2.3-30.6,2.4-64.4.1-95-.2-2.9-.2-7.9-3.1-9.4-7.1-3.7-29.8-6-41.1-10.3C40.9,170.5,22.6,116.2,35.5,60.7c48.5,5,88.3,28.7,107.2,74.7s13.5,40.4,13.5,46.9v102.7ZM246.1,66c0-8-6.5-14.5-14.5-14.5s-14.5,6.5-14.5,14.5,6.5,14.5,14.5,14.5,14.5-6.5,14.5-14.5ZM135.5,181.4c2.8-3-26.6-35.8-30.2-39.7-10.5-11.4-22.9-24.1-35.4-32.8-3.8,4.5,42.1,54,48.3,59.6l17.3,12.9ZM256.8,159.8c0-6.1-4.9-11-11-11s-11,4.9-11,11,4.9,11,11,11,11-4.9,11-11Z"/>
    <path class="st0" d="M156.2,143.5l-14.9-35.7-.6-47.8c-26-6-33.1-42.4-8.8-55.5,38.7-20.9,64.9,37.5,24.2,55.3v83.7ZM161,30.2c0-7.6-6.2-13.8-13.8-13.8s-13.8,6.2-13.8,13.8,6.2,13.8,13.8,13.8,13.8-6.2,13.8-13.8Z"/>
    <path class="st0" d="M114.2,249.4c16.3,16.9,9.5,24.9,12.8,43.3,1.4,7.8,9.6,11.5.9,21.8-10.5,12.3-29.3-.2-23.2-14.6s6.8-5.8,6.9-15.7c.2-14.1-7.4-26-20-32-27.6,35.2-60.5-24.9-23.8-32.4,19.4-3.9,19.1,6.3,28.2,15.9s13.6,8.8,18.2,13.7ZM78.8,240.6c0-3.3-2.7-6-6-6s-6,2.7-6,6,2.7,6,6,6,6-2.7,6-6Z"/>
  </g>
</svg>
